<svg width="36" height="15" viewBox="0 0 36 15" fill="none" xmlns="http://www.w3.org/2000/svg">
<rect width="36" height="15" fill="white"/>
<path d="M4.768 3.6V12H6.028V3.6H4.768ZM8.82878 6.312H7.56878V12H8.82878V6.312ZM7.50878 3.96V5.34H8.88878V3.96H7.50878Z" fill="black"/>
<path d="M21.868 6.312H20.608V9.3C20.608 9.84 20.464 10.26 20.2 10.572C19.936 10.884 19.588 11.04 19.168 11.04C18.808 11.04 18.52 10.932 18.328 10.692C18.124 10.452 18.028 10.116 18.028 9.66V6.312H16.768V9.96C16.768 10.68 16.948 11.22 17.332 11.58C17.716 11.94 18.22 12.12 18.844 12.12C19.612 12.12 20.2 11.784 20.608 11.1V12H21.868V6.312ZM24.6608 6.312H23.4008V12H24.6608V6.312ZM23.3408 3.96V5.34H24.7208V3.96H23.3408ZM27.1136 11.748C27.5096 12 27.9776 12.12 28.5056 12.12C28.9256 12.12 29.3096 12.036 29.6456 11.844C29.9816 11.652 30.2336 11.388 30.4136 11.04V12H31.6256V3.6H30.3656V7.32C30.1976 6.984 29.9576 6.708 29.6456 6.504C29.3216 6.3 28.9376 6.192 28.5056 6.192C27.9776 6.192 27.5096 6.324 27.1136 6.576C26.7056 6.84 26.4056 7.188 26.1896 7.644C25.9736 8.1 25.8656 8.616 25.8656 9.192C25.8656 9.756 25.9736 10.26 26.1896 10.704C26.4056 11.148 26.7056 11.496 27.1136 11.748ZM29.5736 10.788C29.3216 10.932 29.0576 11.004 28.7696 11.004C28.3016 11.004 27.9056 10.848 27.5936 10.512C27.2816 10.176 27.1256 9.744 27.1256 9.192C27.1256 8.832 27.1976 8.52 27.3416 8.232C27.4856 7.944 27.6896 7.728 27.9416 7.572C28.1936 7.416 28.4696 7.332 28.7696 7.332C29.0576 7.332 29.3216 7.416 29.5736 7.56C29.8256 7.716 30.0296 7.932 30.1856 8.22C30.3296 8.508 30.4136 8.832 30.4136 9.192C30.4136 9.564 30.3296 9.888 30.1856 10.164C30.0296 10.44 29.8256 10.644 29.5736 10.788Z" fill="black"/>
<path d="M14.319 12.72C14.607 12.9 14.94 12.99 15.318 12.99C15.732 12.99 16.083 12.9 16.353 12.72L16.038 11.865C15.876 11.991 15.66 12.045 15.408 12.045C14.985 12.045 14.688 11.883 14.517 11.541C14.958 11.244 15.309 10.857 15.561 10.389C15.813 9.921 15.948 9.408 15.948 8.85C15.948 8.256 15.795 7.716 15.507 7.221C15.219 6.726 14.823 6.33 14.319 6.042C13.815 5.754 13.266 5.61 12.663 5.61C12.051 5.61 11.502 5.754 10.998 6.042C10.494 6.33 10.098 6.726 9.81 7.221C9.522 7.716 9.378 8.256 9.378 8.85C9.378 9.444 9.522 9.993 9.81 10.488C10.098 10.983 10.494 11.37 10.998 11.658C11.502 11.946 12.051 12.09 12.663 12.09C13.005 12.09 13.347 12.045 13.689 11.937C13.815 12.279 14.031 12.54 14.319 12.72ZM11.349 10.335C11.349 10.497 11.376 10.65 11.43 10.803C11.115 10.614 10.863 10.353 10.683 10.011C10.503 9.678 10.413 9.291 10.413 8.859C10.413 8.409 10.512 8.013 10.71 7.662C10.908 7.32 11.178 7.05 11.52 6.852C11.862 6.654 12.24 6.555 12.663 6.555C13.077 6.555 13.464 6.654 13.806 6.843C14.148 7.041 14.418 7.311 14.616 7.653C14.814 8.004 14.913 8.4 14.913 8.85C14.913 9.165 14.859 9.453 14.76 9.723C14.661 9.993 14.526 10.227 14.346 10.425C14.292 9.975 14.13 9.615 13.869 9.363C13.599 9.111 13.248 8.985 12.798 8.985C12.528 8.985 12.276 9.048 12.06 9.156C11.844 9.273 11.664 9.435 11.538 9.633C11.412 9.84 11.349 10.074 11.349 10.335ZM13.554 10.974C13.284 11.091 12.987 11.145 12.663 11.145C12.474 11.145 12.321 11.082 12.204 10.956C12.078 10.83 12.024 10.668 12.024 10.452C12.024 10.263 12.087 10.11 12.213 9.984C12.339 9.858 12.51 9.795 12.708 9.795C13.239 9.795 13.518 10.191 13.554 10.974Z" fill="black"/>
</svg>
